inDegrees=yes
name=ik_S41_A05_T03
DataType=double
version=3
OpenSimVersion=4.3-2021-08-27-4bc7ad9
endheader
time	pelvis_tilt	pelvis_list	pelvis_rotation	pelvis_tx	pelvis_ty	pelvis_tz	hip_flexion_r	hip_adduction_r	hip_rotation_r	knee_angle_r	knee_angle_r_beta	ankle_angle_r	subtalar_angle_r	mtp_angle_r	hip_flexion_l	hip_adduction_l	hip_rotation_l	knee_angle_l	knee_angle_l_beta	ankle_angle_l	subtalar_angle_l	mtp_angle_l	lumbar_extension	lumbar_bending	lumbar_rotation	arm_flex_r	arm_add_r	arm_rot_r	elbow_flex_r	pro_sup_r	wrist_flex_r	wrist_dev_r	arm_flex_l	arm_add_l	arm_rot_l	elbow_flex_l	pro_sup_l	wrist_flex_l	wrist_dev_l
9.059999999999896	-6.776946205517558	-6.97840769854072	39.04328893665214	0	0.9399999999999999	0	35.43989039297826	-9.75438505737147	-9.322877682963391	41.66765013243437	0.7272376863800312	0	0	0	35.43989039297826	-9.75438505737147	-9.322877682963391	41.66765013243437	0.7272376863800312	0	0	0	-8.771284144334027	-3.98181105361346	4.636188439811406	68.60865671830645	-9.03315993983996	0.6907127364679015	44.40885444808021	71.1922779388034	0	0	29.73714602871036	2.854009065256206	11.8647927408293	15.89772995458219	81.6281481277705	0	0
9.079999999999895	-6.815520382647091	-6.944476872861515	38.92274747290751	0	0.9399999999999999	0	35.44381045947095	-9.75473160740486	-9.32349035913945	41.67140363031797	0.7273031972765664	0	0	0	35.44381045947095	-9.75473160740486	-9.32349035913945	41.67140363031797	0.7273031972765664	0	0	0	-8.775392877960504	-3.941864667804507	4.69094330409116	68.03256158617502	-9.280306015341301	0.1971944818309301	44.38817885131496	71.12496393100953	0	0	29.72351417502445	2.850679573892731	11.9073239990063	15.87401936610447	81.56720185126906	0	0
9.099999999999895	-6.826098000248297	-6.896636995280866	38.84679466445997	0	0.9399999999999999	0	35.44627549069109	-9.754946493296522	-9.323872194190002	41.67379216561919	0.7273448850818729	0	0	0	35.44627549069109	-9.754946493296522	-9.323872194190002	41.67379216561919	0.7273448850818729	0	0	0	-8.751123787380479	-3.904149371268575	4.721467577376164	68.00544059486816	-9.357223989538426	0.2105394609876695	43.82505297873111	70.65670716089005	0	0	29.6813114878444	2.892891687838747	11.83228180326787	15.79484123098328	81.64025147542628	0	0
9.119999999999894	-6.867074979116454	-6.857368142667671	38.68738048609605	0	0.9399999999999999	0	35.4503942815567	-9.755309797391369	-9.324515169501739	41.67773869723571	0.7274137650526152	0	0	0	35.4503942815567	-9.755309797391369	-9.324515169501739	41.67773869723571	0.7274137650526152	0	0	0	-8.74558929112793	-3.87792510316319	4.858698997727342	66.91235152866771	-9.630354874521425	-0.9885509569652186	44.25322458746972	71.05729494687395	0	0	29.64827287814615	2.86360413018023	11.97189634905907	15.78256369151356	81.5160904387633	0	0
9.139999999999894	-6.877214741735847	-6.809741800700914	38.62479705164851	0	0.9399999999999999	0	35.45311032953811	-9.755546655077133	-9.324936116050905	41.68036576074064	0.7274596159604352	0	0	0	35.45311032953811	-9.755546655077133	-9.324936116050905	41.68036576074064	0.7274596159604352	0	0	0	-8.721853080935157	-3.839239788479978	4.883861241765326	66.87832077192294	-9.677504637846027	-0.9523520026580786	43.69088976649491	70.64993436686885	0	0	29.6175492092606	2.86660002558882	11.96262071487252	15.72327569990584	81.50127616192653	0	0
9.159999999999894	-6.905998070412521	-6.7677529152588	38.47739254701819	0	0.9399999999999999	0	35.45697538639707	-9.755886506015797	-9.325538407951193	41.68407495843137	0.7275243536727459	0	0	0	35.45697538639707	-9.755886506015797	-9.325538407951193	41.68407495843137	0.7275243536727459	0	0	0	-8.707512403477015	-3.813234644135054	4.999947958068972	65.98110707613175	-9.77870815089037	-2.115823500037781	43.90199416467076	71.17266113018097	0	0	29.63288213001124	2.891857666424792	11.90618325353491	15.6338919780576	81.5366088456018	0	0
9.179999999999893	-6.924609926536427	-6.720248740611247	38.43305585060467	0	0.9399999999999999	0	35.46068787106373	-9.756212447351537	-9.326116439505686	41.68764011554838	0.7275865774027886	0	0	0	35.46068787106373	-9.756212447351537	-9.326116439505686	41.68764011554838	0.7275865774027886	0	0	0	-8.688724205695859	-3.77251123037313	5.044047538569884	65.54554372551931	-9.765484101857048	-2.507505740852512	43.65887196638972	71.28086664240605	0	0	29.61986588727572	2.899169903374699	11.88336550643158	15.57089874009281	81.55207616120424	0	0
9.199999999999893	-6.962062869602322	-6.644840435662718	38.3865588356803	0	0.9399999999999999	0	35.46317493279382	-9.756429760377429	-9.326502529902449	41.69003711641704	0.7276284129601198	0	0	0	35.46317493279382	-9.756429760377429	-9.326502529902449	41.69003711641704	0.7276284129601198	0	0	0	-8.668877928226738	-3.696272502376201	5.080633006947022	65.13551076938531	-9.838193783969587	-2.672511076334089	43.96447422769208	71.53067770884338	0	0	29.58288755310759	2.978815786351518	11.84975100490773	15.50548698529234	81.56501555328521	0	0
9.219999999999892	-6.981985071423489	-6.607576164744208	38.3614738729022	0	0.9399999999999999	0	35.46561051927683	-9.756641893587183	-9.32687986353193	41.69239066449067	0.7276694901231087	0	0	0	35.46561051927683	-9.756641893587183	-9.32687986353193	41.69239066449067	0.7276694901231087	0	0	0	-8.659864566975449	-3.658093505437468	5.101914833054388	64.79146948467083	-9.868312075734694	-2.731620172363851	44.26174266699199	71.62106193468765	0	0	29.5764541481621	2.987228515470361	11.87368270991181	15.44377029192796	81.54880514872227	0	0
